<svg width="34" height="34" viewBox="0 0 34 34" fill="none" xmlns="http://www.w3.org/2000/svg">
<path d="M30.3569 26.6574C30.3569 28.1752 29.8952 29.3737 28.9718 30.2528C28.0485 31.1319 26.8215 31.5714 25.291 31.5714H8.70843C7.17792 31.5714 5.95099 31.1319 5.02762 30.2528C4.10426 29.3737 3.64258 28.1752 3.64258 26.6574C3.64258 25.987 3.66471 25.3324 3.70898 24.6936C3.75326 24.0549 3.8418 23.3655 3.97461 22.6256C4.10742 21.8856 4.27502 21.1994 4.4774 20.567C4.67978 19.9345 4.95173 19.3179 5.29325 18.7171C5.63477 18.1163 6.02688 17.604 6.46959 17.1802C6.9123 16.7565 7.45303 16.4182 8.0918 16.1652C8.73056 15.9122 9.43573 15.7857 10.2073 15.7857C10.3212 15.7857 10.5868 15.9217 11.0042 16.1936C11.4216 16.4656 11.8928 16.7692 12.4177 17.1044C12.9426 17.4395 13.6257 17.7431 14.4668 18.0151C15.3079 18.287 16.1523 18.423 16.9997 18.423C17.8472 18.423 18.6915 18.287 19.5326 18.0151C20.3738 17.7431 21.0568 17.4395 21.5818 17.1044C22.1067 16.7692 22.5778 16.4656 22.9953 16.1936C23.4127 15.9217 23.6783 15.7857 23.7921 15.7857C24.5637 15.7857 25.2689 15.9122 25.9076 16.1652C26.5464 16.4182 27.0872 16.7565 27.5299 17.1802C27.9726 17.604 28.3647 18.1163 28.7062 18.7171C29.0477 19.3179 29.3197 19.9345 29.522 20.567C29.7244 21.1994 29.892 21.8856 30.0248 22.6256C30.1576 23.3655 30.2462 24.0549 30.2905 24.6936C30.3347 25.3324 30.3569 25.987 30.3569 26.6574ZM24.2854 9.71429C24.2854 11.7254 23.5739 13.4425 22.151 14.8655C20.728 16.2885 19.0109 17 16.9997 17C14.9886 17 13.2715 16.2885 11.8485 14.8655C10.4255 13.4425 9.71401 11.7254 9.71401 9.71429C9.71401 7.70313 10.4255 5.98605 11.8485 4.56306C13.2715 3.14007 14.9886 2.42857 16.9997 2.42857C19.0109 2.42857 20.728 3.14007 22.151 4.56306C23.5739 5.98605 24.2854 7.70313 24.2854 9.71429Z" fill="white"/>
</svg>
