<svg width="24" height="24" viewBox="0 0 24 24" fill="none" xmlns="http://www.w3.org/2000/svg">
<path d="M2 20C2 21.1 2.9 22 4 22H6.6L2 17.4V20Z" fill="#3671E5"/>
<path d="M21.5996 5.59999L18.3996 2.39999C17.5996 1.59999 16.3996 1.59999 15.5996 2.39999L15.3996 2.59999C14.9996 2.99999 14.9996 3.59999 15.3996 3.99999L19.9996 8.59999C20.3996 8.99999 20.9996 8.99999 21.3996 8.59999L21.5996 8.39999C22.3996 7.59999 22.3996 6.39999 21.5996 5.59999Z" fill="#3671E5"/>
<path d="M13.9999 5.39998C13.5999 4.99998 12.9999 4.99998 12.5999 5.39998L3.49987 14.5C2.99987 15 2.99987 15.6 3.39987 16L7.99987 20.6C8.39987 21 8.99987 21 9.39987 20.6L18.4999 11.5C18.8999 11.1 18.8999 10.5 18.4999 10.1L13.9999 5.39998Z" fill="#3671E5"/>
</svg>
