<svg width="36" height="35" viewBox="0 0 36 35" fill="none" xmlns="http://www.w3.org/2000/svg">
<g clip-path="url(#clip0_2_312)">
<path d="M0 13.731V12.2001C0.0245254 12.0709 0.0527527 11.9422 0.0731134 11.8125C0.601566 8.45156 2.37387 6.1039 5.44232 4.84803C7.04433 4.1921 8.70188 4.11459 10.3738 4.5581C10.5899 4.61503 10.7301 4.58202 10.818 4.36098C10.8593 4.27403 10.9067 4.19039 10.9601 4.11076C12.9411 0.700997 17.1215 -0.852943 20.748 0.469437C22.6661 1.1689 24.1607 2.40947 25.1968 4.21985C25.3713 4.52461 25.5346 4.60259 25.8613 4.50403C26.188 4.40548 26.5508 4.37247 26.8992 4.33611C30.7724 3.9304 34.5303 6.53258 35.6395 10.3849C36.9782 15.0324 34.4771 19.8071 29.9686 21.1945C29.7372 21.2663 29.659 21.3605 29.6604 21.6132C29.6711 23.7336 29.6664 25.854 29.6664 27.9763V28.4155H6.3442V27.9591C6.3442 25.8511 6.33911 23.7426 6.34976 21.6347C6.34976 21.3692 6.2697 21.272 6.02584 21.1907C2.91435 20.1589 0.970989 17.9999 0.19574 14.7137C0.119388 14.3879 0.064784 14.0573 0 13.731Z" fill="white"/>
<path d="M6.36328 35V30.6674H29.6485V34.9995L6.36328 35Z" fill="white"/>
</g>
<defs>
<clipPath id="clip0_2_312">
<rect width="36" height="35" fill="white"/>
</clipPath>
</defs>
</svg>
