<svg width="32" height="32" viewBox="0 0 32 32" fill="none" xmlns="http://www.w3.org/2000/svg">
<g clip-path="url(#clip0_13_4315)">
<path d="M5.42374 24H26.2984C26.9409 24 27.5738 23.8453 28.1438 23.5489C28.7138 23.2525 29.2041 22.8232 29.573 22.2973C29.942 21.7714 30.1789 21.1643 30.2636 20.5275C30.3483 19.8906 30.2784 19.2428 30.0597 18.6387L26.2571 8.12533C25.6076 5.78894 24.2108 3.72959 22.2801 2.26223C20.3495 0.794866 17.9914 0.000282771 15.5664 1.35641e-09V1.35641e-09C13.042 -3.94564e-05 10.5931 0.860784 8.62402 2.44034C6.65491 4.0199 5.28333 6.22374 4.73574 8.688L1.6024 18.8213C1.41792 19.4196 1.37645 20.0528 1.48132 20.67C1.58619 21.2873 1.83448 21.8712 2.20621 22.375C2.57793 22.8788 3.06272 23.2882 3.62155 23.5705C4.18039 23.8527 4.79767 23.9998 5.42374 24Z" fill="white"/>
<path d="M9.4668 26.6667C9.77282 28.1737 10.5904 29.5286 11.7811 30.5018C12.9718 31.475 14.4623 32.0067 16.0001 32.0067C17.5379 32.0067 19.0285 31.475 20.2191 30.5018C21.4098 29.5286 22.2274 28.1737 22.5335 26.6667H9.4668Z" fill="white"/>
</g>
<defs>
<clipPath id="clip0_13_4315">
<rect width="32" height="32" fill="white"/>
</clipPath>
</defs>
</svg>
