<svg width="26" height="33" viewBox="0 0 26 33" fill="none" xmlns="http://www.w3.org/2000/svg">
<g clip-path="url(#clip0_11_2830)">
<path d="M6.50673 1.64612C6.50673 2.1628 6.50673 2.63297 6.50673 3.10624C6.51486 5.20911 7.87515 6.5938 9.93896 6.5969C11.9824 6.5969 14.0252 6.5969 16.0674 6.5969C18.1088 6.5969 19.4742 5.20704 19.4854 3.13001C19.4854 2.65467 19.4854 2.17933 19.4854 1.72466C19.5311 1.68952 19.5504 1.66162 19.5698 1.66162C20.9646 1.66162 22.3615 1.61925 23.7543 1.66162C24.8635 1.69676 25.7805 2.6092 25.9462 3.72832C25.9769 3.93351 25.9922 4.14078 25.992 4.34833C25.992 12.9988 25.992 21.6497 25.992 30.3009C25.992 31.2226 25.7053 31.9935 24.954 32.5464C24.4833 32.8936 23.9485 33.0031 23.3741 33.0021C16.4608 32.9979 9.54755 32.9979 2.63428 33.0021C1.00763 33.0021 -0.00191303 31.9821 -0.00292969 30.3288C-0.000896373 26.5219 0.000120285 22.7158 0.000120285 18.9103C0.000120285 14.0384 0.000120285 9.1658 0.000120285 4.29253C0.000120285 2.90784 0.799213 1.89929 2.06394 1.68022C2.30289 1.64897 2.54399 1.63791 2.78475 1.64715C3.87562 1.64715 4.96649 1.64715 6.05737 1.64715L6.50673 1.64612ZM12.9981 24.758H20.7603C20.8741 24.758 20.989 24.758 21.1029 24.758C21.6041 24.7156 21.9213 24.386 21.9162 23.9179C21.9162 23.4653 21.601 23.148 21.1171 23.1036C21.0032 23.0933 20.8884 23.1036 20.7745 23.1036C15.5875 23.1036 10.4002 23.1036 5.21252 23.1036C5.03564 23.098 4.85869 23.1122 4.68488 23.146C4.51601 23.1921 4.36672 23.2933 4.25996 23.4341C4.1532 23.5748 4.09488 23.7473 4.09395 23.9251C4.09303 24.1028 4.14956 24.2759 4.25485 24.4178C4.36014 24.5597 4.50837 24.6625 4.67674 24.7105C4.85038 24.7458 5.02738 24.7611 5.20439 24.7559C7.80297 24.7594 10.4019 24.7601 13.0011 24.758H12.9981ZM12.9981 18.1446H20.7969C20.9366 18.1486 21.0764 18.1448 21.2157 18.1332C21.4069 18.1155 21.5848 18.0259 21.7145 17.882C21.8442 17.7381 21.9165 17.5503 21.9172 17.3551C21.9315 16.8146 21.5746 16.5026 20.93 16.5015H5.06612C4.97727 16.4988 4.88834 16.5012 4.79976 16.5088C4.58906 16.5297 4.3951 16.6347 4.26038 16.8006C4.12566 16.9666 4.06115 17.1801 4.08098 17.3944C4.11352 17.879 4.448 18.1435 5.04782 18.1446C7.69859 18.1453 10.3494 18.1449 13.0001 18.1435L12.9981 18.1446ZM12.9666 11.5497H20.8416C20.9684 11.5551 21.0955 11.5516 21.2218 11.5394C21.4188 11.5138 21.5992 11.4142 21.7277 11.2603C21.8562 11.1064 21.9234 10.9093 21.9162 10.7076C21.9181 10.5057 21.8434 10.3108 21.7077 10.1634C21.5719 10.016 21.3856 9.92743 21.1873 9.91601C21.0612 9.90361 20.9341 9.90671 20.807 9.90671H5.17287C5.03341 9.90255 4.89382 9.90773 4.75503 9.92221C4.57108 9.94555 4.40157 10.0355 4.27758 10.1756C4.15359 10.3156 4.08343 10.4964 4.07997 10.6848C4.05963 11.2108 4.41953 11.5487 5.01732 11.5497C7.66809 11.5504 10.3185 11.5501 12.9686 11.5487L12.9666 11.5497Z" fill="white"/>
<path d="M13.0214 0C14.0614 0 15.1025 0 16.1415 0C17.2141 0.00723344 17.8698 0.676844 17.8698 1.76599C17.8698 2.2558 17.8749 2.74561 17.8698 3.23542C17.8597 4.2078 17.2202 4.92804 16.2676 4.93941C14.0858 4.96421 11.9044 4.96421 9.72335 4.93941C8.76973 4.92907 8.1333 4.20676 8.1333 3.23128C8.1333 2.74148 8.1333 2.25167 8.1333 1.76186C8.1333 0.674777 8.78599 0.00930014 9.86162 0C10.9169 0 11.9692 0 13.0214 0Z" fill="white"/>
</g>
<defs>
<clipPath id="clip0_11_2830">
<rect width="26" height="33" fill="white"/>
</clipPath>
</defs>
</svg>
