<svg width="34" height="34" viewBox="0 0 34 34" fill="none" xmlns="http://www.w3.org/2000/svg">
<path d="M29.2468 19.1632L28.6879 18.8403C28.0228 18.4567 27.6254 17.7682 27.6254 17C27.6254 16.2318 28.0228 15.5433 28.6879 15.1597L29.2468 14.8368C30.7725 13.9549 31.2942 12.0084 30.4134 10.4826L29.3509 8.64237C28.4722 7.11981 26.5183 6.59706 24.9968 7.47575L24.4379 7.79769C23.7728 8.18231 22.977 8.18231 22.3129 7.79769C21.6478 7.41306 21.2504 6.72563 21.2504 5.95744V5.3125C21.2504 3.55512 19.8203 2.125 18.0629 2.125H15.9379C14.1805 2.125 12.7504 3.55512 12.7504 5.3125V5.9585C12.7504 6.72669 12.353 7.41412 11.6879 7.79875C11.0228 8.18231 10.228 8.18338 9.56289 7.79875L9.00402 7.47575C7.48252 6.59706 5.52858 7.11981 4.64883 8.64237L3.58633 10.4826C2.70552 12.0084 3.22721 13.9559 4.75296 14.8368L5.31289 15.1597C5.97802 15.5433 6.37539 16.2318 6.37539 17C6.37539 17.7682 5.97802 18.4567 5.31289 18.8403L4.75402 19.1632C3.22827 20.0441 2.70658 21.9916 3.58739 23.5174L4.64989 25.3576C5.52964 26.8802 7.48358 27.4029 9.00402 26.5243L9.56289 26.2023C10.228 25.8166 11.0228 25.8187 11.6879 26.2023C12.353 26.5869 12.7504 27.2744 12.7504 28.0426V28.6875C12.7504 30.4449 14.1805 31.875 15.9379 31.875H18.0629C19.8203 31.875 21.2504 30.4449 21.2504 28.6875V28.0415C21.2504 27.2733 21.6478 26.5859 22.3129 26.2013C22.977 25.8177 23.7728 25.8166 24.4379 26.2013L24.9968 26.5243C26.5183 27.4019 28.4722 26.8791 29.3509 25.3576L30.4134 23.5174C31.2942 21.9916 30.7725 20.0441 29.2468 19.1632ZM17.0004 22.3125C14.0711 22.3125 11.6879 19.9293 11.6879 17C11.6879 14.0707 14.0711 11.6875 17.0004 11.6875C19.9297 11.6875 22.3129 14.0707 22.3129 17C22.3129 19.9293 19.9297 22.3125 17.0004 22.3125Z" fill="white"/>
</svg>
