<svg width="100" height="100" viewBox="0 0 100 100" fill="none" xmlns="http://www.w3.org/2000/svg">
<g opacity="0.2">
<path d="M77.7539 45.5469C77.7539 45.3125 77.793 45.0781 77.793 44.8438C77.793 32.1484 67.6758 21.875 55.1953 21.875C46.1914 21.875 38.457 27.2266 34.8242 34.9609C33.2422 34.1602 31.4648 33.6914 29.5898 33.6914C23.8281 33.6914 19.0234 37.9687 18.1055 43.5547C11.1914 45.9375 6.25 52.5586 6.25 60.3516C6.25 70.1563 14.082 78.125 23.7305 78.125H43.75V62.5H34.3359L50 46.1523L65.6641 62.4805H56.25V78.1055H77.793C86.6211 78.1055 93.75 70.7813 93.75 61.8164C93.75 52.8516 86.582 45.5664 77.7539 45.5469Z" fill="black"/>
</g>
</svg>
